<svg xmlns="http://www.w3.org/2000/svg">
     

    <!-- ICONO NAVEGACION -->

        <!--No puedo utilizar un symbol sino tengo un <use> en el html 
        fill define un color por nombre
        viewbox -> min-x, min-y, width and height-->
    
    <symbol fill="Color_actual" viewbox="0 0 150 75" id="location"
    xmlns="http://www.w3.org/2000/svg">

        <!-- path define la forma de una figura
        y el "d" define la forma de la ruta -->
        <path d="M10 20S3 10.87 3 7a7 7 0 1 1 14 0c0 3.87-7 13-7 13zm0-11a2 2 0 1 0 0-4 2 2 0 0 0 0 4z"/>
    
    </symbol>

    <!-- ICONO CIRCULO -->

<symbol fill="Color_actual" viewbox="0 0 150 75" id="circle"
    xmlns="http://www.w3.org/2000/svg">
<path d="M94.052,0C42.19,0.001,0,42.194,0.001,94.055c0,51.862,42.191,94.056,94.051,94.057
		c51.864-0.001,94.059-42.194,94.059-94.056C188.11,42.193,145.916,0,94.052,0z M94.052,173.111
		c-43.589-0.001-79.051-35.465-79.051-79.057C15,50.464,50.462,15.001,94.052,15c43.593,0,79.059,35.464,79.059,79.056
		C173.11,137.646,137.645,173.11,94.052,173.111z"/>
	<path d="M94.053,50.851c-23.821,0.002-43.202,19.384-43.202,43.204c0,23.824,19.381,43.206,43.203,43.206
		c23.823,0,43.205-19.382,43.205-43.205C137.259,70.232,117.877,50.851,94.053,50.851z M94.054,122.261
		c-15.551,0-28.203-12.653-28.203-28.206c0-15.55,12.652-28.203,28.203-28.204c15.553,0,28.205,12.653,28.205,28.205
		C122.259,109.608,109.606,122.261,94.054,122.261z"/>
	<circle cx="94.055" cy="94.056" r="16.229"/>
  </symbol>

    <!-- GLOBO CONVERSACION -->

    <symbol fill="Color_actual" viewbox="0 0 24 24" id="globo" stroke="Color_actual" stroke-width="2" 
    stroke-linecap="round" stroke-linejoin="round" xmlns="http://www.w3.org/2000/svg">
    <path d="M21 15a2 2 0 0 1-2 2H7l-4 4V5a2 2 0 0 1 2-2h14a2 2 0 0 1 2 2z"></path>
    </symbol>


</svg>

